<?xml version="1.0" encoding="UTF-8" standalone="no"?>
<svg
   xmlns:dc="http://purl.org/dc/elements/1.1/"
   xmlns:cc="http://creativecommons.org/ns#"
   xmlns:rdf="http://www.w3.org/1999/02/22-rdf-syntax-ns#"
   xmlns:svg="http://www.w3.org/2000/svg"
   xmlns="http://www.w3.org/2000/svg"
   version="1.1"
   id="svg4188"
   viewBox="0 0 128 128"
   height="128"
   width="128">
  <defs
     id="defs4190" />
  <metadata
     id="metadata4193">
    <rdf:RDF>
      <cc:Work
         rdf:about="">
        <dc:format>image/svg+xml</dc:format>
        <dc:type
           rdf:resource="http://purl.org/dc/dcmitype/StillImage" />
        <dc:title></dc:title>
      </cc:Work>
    </rdf:RDF>
  </metadata>
  <g
     transform="translate(-1022.2857,-269.00507)"
     id="layer1">
    <g
       transform="matrix(2,0,0,2,-1022.2857,-398.06482)"
       id="g4169">
      <path
         style="fill:none;fill-rule:evenodd;stroke:#26adef;stroke-width:1.46434045;stroke-linecap:round;stroke-linejoin:miter;stroke-miterlimit:4;stroke-dasharray:none;stroke-opacity:0.94117647"
         id="path4754"
         d="m 1045.1231,364.09625 c -3.5833,-4.21164 -1.1054,-10.47458 3.1907,-13.05379 6.4732,-3.88629 14.7239,-0.39539 18.0013,5.98979 4.3329,8.44176 -0.179,18.68362 -8.4792,22.57657 -10.2658,4.8149 -22.4313,-0.68243 -26.8986,-10.78396 -5.3043,-11.99408 1.1416,-26.01612 12.9604,-31.03068 13.6507,-5.79178 29.47,1.57014 35.0117,15.03998 4.4105,10.72048 1.7444,23.28231 -6.2413,31.59298" />
      <g
         transform="matrix(0.12542505,0,0,0.12542505,1038.1921,346.24825)"
         id="g22">
        <path
           style="fill:#1a1918"
           id="path24"
           d="m 255.87857,127.86803 c 0,70.45514 -57.11008,127.56471 -127.56622,127.56471 -70.450124,0 -127.56622267,-57.10957 -127.56622267,-127.56471 0,-70.450122 57.11609867,-127.56622146 127.56622267,-127.56622146 70.45614,0 127.56622,57.11609946 127.56622,127.56622146" />
        <path
           style="fill:#ffffff"
           id="path26"
           d="m 130.45986,78.228885 33.0116,81.476255 -49.86345,-39.2778 16.85185,-42.198455 z M 189.10434,178.47412 138.32577,56.27205 c -1.44952,-3.524365 -4.34807,-5.389259 -7.86591,-5.389259 -3.52436,0 -6.63386,1.864894 -8.08338,5.389259 l -55.732876,134.04036 19.06532,0 22.062306,-55.26527 65.83887,53.18993 c 2.64792,2.14114 4.55852,3.1095 7.0422,3.1095 4.97389,0 9.32146,-3.72879 9.32146,-9.11102 0,-0.87594 -0.3094,-2.2662 -0.86942,-3.76143 l 0,0 z" />
      </g>
      <g
         id="g4776">
        <path
           id="path9906"
           d="m 1029.6873,386.00588 c -0.025,-1.25562 -1.1502,-1.91049 -2.453,-1.91049 -1.3541,0 -2.4793,0.54248 -2.4793,1.56086 0,0.79083 1.2528,1.14185 2.5431,1.52617 1.7121,0.49808 3.6032,1.05167 3.6032,2.81648 0,1.66352 -1.0864,2.86226 -3.8071,2.86226 -2.4405,0 -3.7058,-1.67463 -3.7572,-3.13281 l 1.1377,0 c 0.051,1.00588 0.9199,2.11444 2.6195,2.11444 1.9035,0 2.6708,-0.77974 2.6708,-1.84389 0,-1.00589 -1.4568,-1.42489 -2.8373,-1.82031 -1.6607,-0.47589 -3.3229,-1.02947 -3.3229,-2.52234 0,-1.70793 1.6996,-2.57923 3.6295,-2.57923 1.8661,0 3.5518,0.99478 3.5907,2.92886 z m 0,0"
           style="clip-rule:nonzero;fill:#e16119;fill-opacity:1;fill-rule:nonzero;stroke:none" />
        <path
           style="fill:#e16119;fill-opacity:1;fill-rule:nonzero;stroke:none"
           d="m 1040.8048,392.54344 c -0.8172,0.18175 -1.5456,0.30662 -2.1589,0.30662 -0.4356,0 -0.9073,-0.0347 -1.3416,-0.17066 -1.2279,-0.39541 -1.8023,-1.14185 -1.8023,-2.51124 l 0,-1.54837 c 0,-1.91188 1.2653,-2.82897 2.9386,-2.82897 0.6257,0 1.4568,0.23864 2.3766,0.60076 l -0.4467,0.88102 c -0.7284,-0.32744 -1.4055,-0.4856 -1.9299,-0.4856 -1.0087,0 -1.8522,0.59937 -1.8522,1.83279 l 0,1.54837 c 0,0.89489 0.3191,1.36939 1.06,1.57334 0.2691,0.0791 0.6132,0.12349 0.9975,0.12349 0.4592,0 1.1488,-0.12349 1.9161,-0.25945 z m 0,0"
           id="path9908" />
        <path
           style="fill:#e16119;fill-opacity:1;fill-rule:nonzero;stroke:none"
           d="m 1050.4141,388.98052 c -0.4981,-0.0555 -1.0226,-0.0902 -1.4693,-0.0902 -1.3292,0 -2.403,0.29414 -2.403,1.50536 0,1.13075 0.9975,1.48039 2.2115,1.48039 0.5744,0 1.1627,-0.11239 1.6608,-0.30524 z m -4.9962,1.41518 c 0,-1.99096 1.6483,-2.48905 3.5269,-2.48905 0.4592,0 0.9587,0.0333 1.4304,0.068 -0.1401,-0.61047 -0.6132,-1.17654 -2.1075,-1.17654 -0.7672,0 -1.3555,0.18036 -1.8661,0.4634 l -0.7034,-0.81442 c 0.7284,-0.37322 1.547,-0.64377 2.5695,-0.64377 3.2452,0 3.2577,1.60526 3.2577,2.95106 l 0,4.00412 -1.1113,0 0,-0.12348 c -0.537,0.15817 -1.1627,0.24835 -1.6608,0.24835 -1.8785,-0.0458 -3.3354,-0.64516 -3.3354,-2.48766"
           id="path9910" />
        <path
           style="fill:#e16119;fill-opacity:1;fill-rule:nonzero;stroke:none"
           d="m 1056.1261,383.22408 1.0989,0 0,9.49001 -1.0989,0 z m 0,0"
           id="path9912" />
        <path
           style="fill:#e16119;fill-opacity:1;fill-rule:nonzero;stroke:none"
           d="m 1066.4763,388.20079 c 0,-1.08636 -0.9587,-1.41379 -1.7509,-1.41379 -0.8311,0 -1.7884,0.36212 -1.7884,1.43599 l 0,0.53138 3.5393,0 z m 0.9324,3.86815 c -0.9074,0.4523 -1.9424,0.79222 -2.8359,0.81442 l -0.1415,0 c -1.5456,0 -2.607,-0.67846 -2.607,-2.14913 l 0,-2.50014 c 0,-1.54976 1.2015,-2.44327 2.9136,-2.44327 1.8147,0 2.8373,0.93929 2.8373,2.42107 l 0,1.51646 -4.6382,0 0,1.01698 c 0,0.75753 0.6646,1.15434 1.5331,1.15434 0.5883,0 1.4179,-0.22615 2.4017,-0.71314 z m 0,0"
           id="path9914" />
        <path
           style="fill:#b0b0b0;fill-opacity:1;fill-rule:nonzero;stroke:none"
           d="m 1072.2397,385.9157 1.0989,0 0,6.79839 -1.0989,0 z m -0.065,-1.99096 c 0,-0.37322 0.2053,-0.53139 0.6146,-0.53139 0.4204,0 0.5994,0.15817 0.5994,0.53139 0,0.37321 -0.179,0.54387 -0.5994,0.54387 -0.4093,0 -0.6146,-0.17066 -0.6146,-0.54387"
           id="path9916" />
        <path
           id="path9920"
           d="m 1084.1605,386.24452 c 0,-1.39159 -0.8686,-2.2518 -2.4918,-2.2518 -1.5456,0 -2.5418,0.74644 -2.5418,2.23931 l 0,3.55181 c 0,1.54976 1.3416,2.05895 2.5293,2.05895 1.189,0 2.5043,-0.50919 2.5043,-2.05895 z m 1.1252,3.53932 c 0,2.2629 -1.8661,3.07732 -3.6295,3.07732 -1.7496,0 -3.667,-0.81442 -3.667,-3.07732 l 0,-3.55181 c 0,-2.21711 1.4568,-3.2452 3.6795,-3.2452 2.3392,0 3.617,1.25563 3.617,3.25769 z m 0,0"
           style="clip-rule:nonzero;fill:#b0b0b0;fill-opacity:1;fill-rule:nonzero;stroke:none" />
        <path
           style="fill:#000000;fill-opacity:1;fill-rule:nonzero;stroke:none"
           d="m 1071.8179,384.27576 c 0,-0.45231 0.4593,-0.86021 1.0087,-0.86021 0.4856,0 0.9837,0.4079 0.9837,0.86021 0,0.4634 -0.4981,0.9046 -0.9837,0.9046 -0.5494,0 -1.0087,-0.4412 -1.0087,-0.9046"
           id="path9922" />
        <path
           id="path9926"
           d="m 1023.2857,395.64295 0,-1.368 0.9712,0 0,0.14706 -0.8172,0 0,0.4634 0.7409,0 0,0.14707 -0.7409,0 0,0.4634 0.8172,0 0,0.14707 z m 0,0"
           style="clip-rule:nonzero;fill:#000000;fill-opacity:1;fill-rule:nonzero;stroke:none" />
        <path
           style="fill:#000000;fill-opacity:1;fill-rule:nonzero;stroke:none"
           d="m 1026.0841,394.27495 0.154,0 0,1.368 -0.154,0 z m 0,0"
           id="path9928" />
        <path
           style="fill:#000000;fill-opacity:1;fill-rule:nonzero;stroke:none"
           d="m 1028.7938,395.10047 c -0.078,0 -0.154,-0.0111 -0.2178,-0.0111 -0.1915,0 -0.3455,0.0444 -0.3455,0.21506 0,0.16926 0.1415,0.21505 0.3205,0.21505 0.076,0 0.1651,-0.0125 0.2428,-0.0347 z m -0.7284,0.20395 c 0,-0.28304 0.2428,-0.35102 0.5106,-0.35102 0.064,0 0.1401,0 0.2039,0.0111 -0.013,-0.0902 -0.089,-0.16927 -0.3066,-0.16927 -0.1013,0 -0.1915,0.0222 -0.2678,0.0569 l -0.1027,-0.11377 c 0.1152,-0.0569 0.2304,-0.0902 0.3705,-0.0902 0.4731,0 0.4731,0.22615 0.4731,0.4301 l 0,0.57578 -0.1526,0 0,-0.0222 c -0.078,0.0222 -0.1665,0.0347 -0.2428,0.0347 -0.2692,0 -0.4856,-0.0916 -0.4856,-0.36212"
           id="path9930" />
        <path
           style="fill:#000000;fill-opacity:1;fill-rule:nonzero;stroke:none"
           d="m 1030.9276,395.31552 c 0.013,0.11238 0.1013,0.21505 0.2803,0.21505 0.154,0 0.2428,-0.068 0.2428,-0.15817 0,-0.0916 -0.1401,-0.13597 -0.2803,-0.17065 -0.1789,-0.0444 -0.3579,-0.10128 -0.3579,-0.27055 0,-0.13597 0.1027,-0.29413 0.3829,-0.29413 0.2817,0 0.3968,0.19146 0.3968,0.34963 l -0.1664,0 c 0,-0.10129 -0.051,-0.20257 -0.2304,-0.20257 -0.1665,0 -0.2164,0.0791 -0.2164,0.14707 0,0.0555 0.1276,0.10128 0.2428,0.13458 0.1915,0.0458 0.3829,0.11377 0.3829,0.30662 0,0.16927 -0.154,0.29414 -0.3968,0.29414 -0.2927,0 -0.4218,-0.17066 -0.4343,-0.35102 z m 0,0"
           id="path9932" />
        <path
           style="fill:#000000;fill-opacity:1;fill-rule:nonzero;stroke:none"
           d="m 1033.9814,395.66654 c -0.333,0 -0.5494,-0.13597 -0.5494,-0.41901 l 0,-0.97258 0.1665,0 0,0.38431 0.2927,0 0,0.14707 -0.2927,0 0,0.4412 c 0,0.18037 0.1526,0.27194 0.3829,0.27194 z m 0,0"
           id="path9934" />
        <path
           style="fill:#000000;fill-opacity:1;fill-rule:nonzero;stroke:none"
           d="m 1035.8086,394.65926 0.1665,0 0,0.98369 -0.1665,0 z m -0.013,-0.28303 c 0,-0.0569 0.037,-0.0791 0.089,-0.0791 0.064,0 0.09,0.0222 0.09,0.0791 0,0.0569 -0.026,0.0791 -0.09,0.0791 -0.051,0 -0.089,-0.0222 -0.089,-0.0791"
           id="path9936" />
        <path
           style="fill:#000000;fill-opacity:1;fill-rule:nonzero;stroke:none"
           d="m 1038.5682,395.62075 c -0.1151,0.0222 -0.2289,0.0458 -0.3066,0.0458 -0.064,0 -0.1401,-0.0125 -0.204,-0.0236 -0.1664,-0.0569 -0.2552,-0.16926 -0.2552,-0.36212 l 0,-0.22615 c 0,-0.28164 0.179,-0.40651 0.4218,-0.40651 0.089,0 0.2164,0.0333 0.344,0.0791 l -0.064,0.13597 c -0.1013,-0.0569 -0.204,-0.0791 -0.2802,-0.0791 -0.1416,0 -0.2692,0.0902 -0.2692,0.27054 l 0,0.22615 c 0,0.12488 0.051,0.19286 0.154,0.22615 0.037,0.0125 0.089,0.0125 0.1526,0.0125 0.064,0 0.1665,-0.0125 0.2692,-0.0347 z m 0,0"
           id="path9938" />
        <path
           style="fill:#000000;fill-opacity:1;fill-rule:nonzero;stroke:none"
           d="m 1042.8235,395.20175 c 0,0.21505 0.154,0.31772 0.3704,0.31772 0.1415,0 0.2553,-0.0569 0.333,-0.15955 l 0.1401,0.0805 c -0.1151,0.13458 -0.2678,0.22615 -0.4731,0.22615 -0.3191,0 -0.523,-0.14707 -0.523,-0.46479 l 0,-0.4967 c 0,-0.31772 0.2039,-0.46479 0.523,-0.46479 0.1915,0 0.358,0.0791 0.4731,0.22615 l -0.1401,0.0791 c -0.078,-0.10128 -0.1915,-0.15816 -0.333,-0.15816 -0.2164,0 -0.3704,0.10267 -0.3704,0.31772 z m 0,0"
           id="path9940" />
        <path
           style="fill:#000000;fill-opacity:1;fill-rule:nonzero;stroke:none"
           d="m 1046.1838,395.04358 c 0,-0.15817 -0.089,-0.25945 -0.2677,-0.25945 -0.1666,0 -0.2678,0.0902 -0.2678,0.25945 l 0,0.22615 c 0,0.13597 0.089,0.24974 0.2678,0.24974 0.1914,0 0.2677,-0.11377 0.2677,-0.24974 z m 0.1665,0.22615 c 0,0.20395 -0.1276,0.39681 -0.4342,0.39681 -0.2942,0 -0.4218,-0.19286 -0.4218,-0.39681 l 0,-0.22615 c 0,-0.25945 0.154,-0.40651 0.4218,-0.40651 0.2816,0 0.4342,0.15816 0.4342,0.40651 z m 0,0"
           id="path9942" />
        <path
           style="fill:#000000;fill-opacity:1;fill-rule:nonzero;stroke:none"
           d="m 1048.8685,395.64295 0,-0.65625 c 0,-0.14707 -0.1415,-0.20257 -0.2817,-0.20257 -0.09,0 -0.1789,0.0222 -0.2553,0.0555 l 0,0.80332 -0.154,0 0,-0.98369 0.154,0 0,0.0222 c 0.076,-0.0222 0.1652,-0.0333 0.2553,-0.0333 0.076,0 0.179,0.0111 0.2303,0.0444 0.1277,0.0458 0.204,0.14707 0.204,0.29414 l 0,0.65625 z m 0,0"
           id="path9944" />
        <path
           style="fill:#000000;fill-opacity:1;fill-rule:nonzero;stroke:none"
           d="m 1051.1938,395.64295 -0.4218,-0.98369 0.1665,0 0.3066,0.71314 c 0.037,-0.0916 0.076,-0.18175 0.1138,-0.27193 0.065,-0.14707 0.129,-0.30524 0.1929,-0.44121 l 0.1526,0 -0.4093,0.98369 z m 0,0"
           id="path9946" />
        <path
           style="fill:#000000;fill-opacity:1;fill-rule:nonzero;stroke:none"
           d="m 1054.1199,394.9867 c 0,-0.14707 -0.1276,-0.20257 -0.2428,-0.20257 -0.1276,0 -0.2692,0.0555 -0.2692,0.21505 l 0,0.0791 0.512,0 z m 0.1401,0.56607 c -0.1276,0.068 -0.2816,0.11377 -0.4093,0.11377 l -0.025,0 c -0.2178,0 -0.3704,-0.0916 -0.3704,-0.30662 l 0,-0.36074 c 0,-0.22615 0.1665,-0.35102 0.4218,-0.35102 0.2553,0 0.4092,0.13597 0.4092,0.35102 l 0,0.21367 -0.6784,0 0,0.14707 c 0,0.11376 0.1027,0.17065 0.2303,0.17065 0.076,0 0.2054,-0.0347 0.3455,-0.10267 z m 0,0"
           id="path9948" />
        <path
           style="fill:#000000;fill-opacity:1;fill-rule:nonzero;stroke:none"
           d="m 1056.1136,394.65926 0.1526,0 0,0.0569 c 0.076,-0.0458 0.179,-0.0791 0.2678,-0.0791 0.051,0 0.1152,0.0111 0.2054,0.0333 l -0.039,0.14708 c -0.064,-0.0222 -0.1276,-0.0333 -0.1665,-0.0333 -0.1776,0 -0.2678,0.0902 -0.2678,0.25945 l 0,0.59937 -0.1526,0 z m 0,0"
           id="path9950" />
        <path
           id="path9954"
           d="m 1059.1674,395.48478 0,-0.64515 c -0.064,-0.0333 -0.154,-0.0444 -0.2428,-0.0444 -0.1415,0 -0.2817,0.0444 -0.2817,0.19147 l 0,0.33992 c 0,0.14706 0.1277,0.20395 0.2692,0.20395 0.1013,0 0.1914,-0.0236 0.2553,-0.0458 m 0.1651,-0.82552 0,1.02948 c 0,0.21505 -0.1526,0.31633 -0.383,0.31633 l -0.013,0 c -0.1276,-0.0111 -0.2816,-0.0569 -0.4092,-0.12487 l 0.078,-0.12348 c 0.1402,0.068 0.2553,0.10128 0.3441,0.10128 0.1277,0 0.2179,-0.0569 0.2179,-0.16926 l 0,-0.0569 c -0.078,0.0222 -0.1665,0.0347 -0.2553,0.0347 -0.09,0 -0.1665,-0.0125 -0.2303,-0.0347 -0.1152,-0.0569 -0.2054,-0.14707 -0.2054,-0.30523 l 0,-0.33992 c 0,-0.14707 0.09,-0.24835 0.2054,-0.29414 0.064,-0.0333 0.1526,-0.0444 0.2428,-0.0444 0.089,0 0.165,0 0.2428,0.0333 l 0,-0.0222 z m 0,0"
           style="clip-rule:nonzero;fill:#000000;fill-opacity:1;fill-rule:nonzero;stroke:none" />
        <path
           style="fill:#000000;fill-opacity:1;fill-rule:nonzero;stroke:none"
           d="m 1061.8243,394.9867 c 0,-0.14707 -0.1402,-0.20257 -0.2553,-0.20257 -0.1152,0 -0.2553,0.0555 -0.2553,0.21505 l 0,0.0791 0.5106,0 z m 0.1415,0.56607 c -0.1276,0.068 -0.2817,0.11377 -0.4093,0.11377 l -0.025,0 c -0.2178,0 -0.3718,-0.0916 -0.3718,-0.30662 l 0,-0.36074 c 0,-0.22753 0.1665,-0.35102 0.4218,-0.35102 0.2566,0 0.4092,0.13597 0.4092,0.35102 l 0,0.21367 -0.677,0 0,0.14707 c 0,0.11376 0.1026,0.17065 0.2303,0.17065 0.076,0 0.2039,-0.0347 0.3441,-0.10267 z m 0,0"
           id="path9956" />
        <path
           style="fill:#000000;fill-opacity:1;fill-rule:nonzero;stroke:none"
           d="m 1064.2523,395.51947 c 0.09,0 0.179,-0.0125 0.2567,-0.0458 l 0,-0.64515 c -0.078,-0.0222 -0.179,-0.0444 -0.2692,-0.0444 -0.1401,0 -0.2678,0.0555 -0.2678,0.20257 l 0,0.33992 c 0,0.14706 0.1401,0.19285 0.2803,0.19285 m 0.4093,0.12348 -0.1526,0 0,-0.0111 c -0.09,0.0222 -0.179,0.0347 -0.2567,0.0347 -0.076,0 -0.179,-0.0236 -0.2428,-0.0458 -0.1152,-0.0569 -0.1915,-0.14706 -0.1915,-0.30523 l 0,-0.32882 c 0,-0.25945 0.2053,-0.33853 0.4218,-0.33853 0.1027,0 0.179,0.0111 0.2692,0.0333 l 0,-0.40652 0.1526,0 z m 0,0"
           id="path9958" />
        <path
           style="fill:#000000;fill-opacity:1;fill-rule:nonzero;stroke:none"
           d="m 1069.6702,394.68146 c 0,-0.19146 -0.1651,-0.28303 -0.358,-0.28303 -0.1914,0 -0.3565,0.0805 -0.3565,0.22753 0,0.11239 0.1914,0.16927 0.3704,0.21367 0.2428,0.0791 0.5231,0.15955 0.5231,0.4079 0,0.24835 -0.1651,0.41901 -0.5494,0.41901 -0.358,0 -0.537,-0.23864 -0.5495,-0.45369 l 0.1665,0 c 0.013,0.14707 0.1401,0.30662 0.383,0.30662 0.2691,0 0.3843,-0.11377 0.3843,-0.27194 0,-0.13596 -0.2054,-0.20395 -0.4093,-0.26083 -0.2428,-0.068 -0.4856,-0.14707 -0.4856,-0.36074 0,-0.24973 0.2552,-0.3746 0.523,-0.3746 0.2817,0 0.5245,0.14707 0.5245,0.4301 z m 0,0"
           id="path9960" />
        <path
           style="fill:#000000;fill-opacity:1;fill-rule:nonzero;stroke:none"
           d="m 1072.2133,395.66654 c -0.3315,0 -0.5369,-0.13597 -0.5369,-0.41901 l 0,-0.97258 0.154,0 0,0.38431 0.2942,0 0,0.14707 -0.2942,0 0,0.4412 c 0,0.18037 0.1526,0.27194 0.3829,0.27194 z m 0,0"
           id="path9962" />
        <path
           style="fill:#000000;fill-opacity:1;fill-rule:nonzero;stroke:none"
           d="m 1074.6164,395.04358 c 0,-0.15817 -0.1027,-0.25945 -0.2692,-0.25945 -0.179,0 -0.2678,0.0902 -0.2678,0.25945 l 0,0.22615 c 0,0.13597 0.076,0.24974 0.2678,0.24974 0.1915,0 0.2692,-0.11377 0.2692,-0.24974 z m 0.1526,0.22615 c 0,0.20395 -0.1152,0.39681 -0.4218,0.39681 -0.3066,0 -0.4343,-0.19286 -0.4343,-0.39681 l 0,-0.22615 c 0,-0.25945 0.154,-0.40651 0.4343,-0.40651 0.2692,0 0.4218,0.15816 0.4218,0.40651 z m 0,0"
           id="path9964" />
        <path
           style="fill:#000000;fill-opacity:1;fill-rule:nonzero;stroke:none"
           d="m 1076.5962,394.65926 0.1665,0 0,0.0569 c 0.064,-0.0458 0.1665,-0.0791 0.2678,-0.0791 0.051,0 0.1152,0.0111 0.1914,0.0333 l -0.025,0.14708 c -0.076,-0.0222 -0.1401,-0.0333 -0.1664,-0.0333 -0.179,0 -0.2678,0.0902 -0.2678,0.25945 l 0,0.59937 -0.1665,0 z m 0,0"
           id="path9966" />
        <path
           style="fill:#000000;fill-opacity:1;fill-rule:nonzero;stroke:none"
           d="m 1079.6888,395.10047 c -0.076,0 -0.154,-0.0111 -0.2178,-0.0111 -0.1915,0 -0.3441,0.0444 -0.3441,0.21506 0,0.16926 0.1401,0.21505 0.3191,0.21505 0.089,0 0.1665,-0.0125 0.2428,-0.0347 z m -0.7284,0.20395 c 0,-0.28304 0.2428,-0.35102 0.5106,-0.35102 0.064,0 0.1415,0 0.2053,0.0111 -0.013,-0.0902 -0.09,-0.16927 -0.2941,-0.16927 -0.1152,0 -0.204,0.0222 -0.2692,0.0569 l -0.1013,-0.11377 c 0.1013,-0.0569 0.2165,-0.0902 0.3705,-0.0902 0.4592,0 0.4592,0.22615 0.4592,0.4301 l 0,0.57578 -0.1526,0 0,-0.0222 c -0.076,0.0222 -0.1665,0.0347 -0.2428,0.0347 -0.2678,0 -0.4856,-0.0916 -0.4856,-0.36212"
           id="path9968" />
        <path
           id="path9972"
           d="m 1082.3596,395.48478 0,-0.64515 c -0.076,-0.0333 -0.154,-0.0444 -0.2428,-0.0444 -0.154,0 -0.2816,0.0444 -0.2816,0.19147 l 0,0.33992 c 0,0.14706 0.1276,0.20395 0.2691,0.20395 0.1013,0 0.1915,-0.0236 0.2553,-0.0458 m 0.1665,-0.82552 0,1.02948 c 0,0.21505 -0.154,0.31633 -0.3843,0.31633 l -0.013,0 c -0.1277,-0.0111 -0.2817,-0.0569 -0.4093,-0.12487 l 0.078,-0.12348 c 0.1401,0.068 0.2553,0.10128 0.3441,0.10128 0.1151,0 0.2178,-0.0569 0.2178,-0.16926 l 0,-0.0569 c -0.076,0.0222 -0.1665,0.0347 -0.2553,0.0347 -0.09,0 -0.1665,-0.0125 -0.2303,-0.0347 -0.1152,-0.0569 -0.2054,-0.14707 -0.2054,-0.30523 l 0,-0.33992 c 0,-0.14707 0.09,-0.24835 0.2054,-0.29414 0.064,-0.0333 0.1526,-0.0444 0.2428,-0.0444 0.089,0 0.1665,0 0.2428,0.0333 l 0,-0.0222 z m 0,0"
           style="clip-rule:nonzero;fill:#000000;fill-opacity:1;fill-rule:nonzero;stroke:none" />
        <path
           id="path9976"
           d="m 1085.0165,394.9867 c 0,-0.14707 -0.1401,-0.20257 -0.2553,-0.20257 -0.1151,0 -0.2552,0.0555 -0.2552,0.21505 l 0,0.0791 0.5105,0 z m 0.1415,0.56607 c -0.1415,0.068 -0.2816,0.11377 -0.4092,0.11377 l -0.025,0 c -0.2179,0 -0.3705,-0.0916 -0.3705,-0.30662 l 0,-0.36074 c 0,-0.22753 0.1651,-0.35102 0.4204,-0.35102 0.2567,0 0.4093,0.13597 0.4093,0.35102 l 0,0.21367 -0.6771,0 0,0.14707 c 0,0.11376 0.1027,0.17065 0.2179,0.17065 0.089,0 0.2164,-0.0347 0.3579,-0.10267 z m 0,0"
           style="clip-rule:nonzero;fill:#000000;fill-opacity:1;fill-rule:nonzero;stroke:none" />
      </g>
    </g>
  </g>
</svg>
